<svg xmlns="http://www.w3.org/2000/svg" viewBox="0 0 26.000001 25.999999" width="26" height="26"><path d="M10.345 1.677a.49.49 0 0 0-.493.493.49.49 0 0 0 .361.472.243.243 0 0 1 .155.132l.667 1.437a.243.243 0 0 1-.22.345h-.608V6.26l1.432 1.084a.243.243 0 0 1-.146.436h-.88l-1.125 2.79a.243.243 0 0 1-.315.135L4.104 8.687 1 10.24l2.058 3.847 4.977 1.883.661-.335a.243.243 0 0 1 .345.16l1.23 5.063 2.543 2.8a.243.243 0 0 1 .058.109l.128.556.128-.556a.243.243 0 0 1 .058-.109l2.543-2.8 1.23-5.064a.243.243 0 0 1 .345-.159l.661.335 4.977-1.883L25 10.241l-3.104-1.554-5.069 2.018a.243.243 0 0 1-.315-.135l-1.124-2.79h-.88a.243.243 0 0 1-.147-.436l1.433-1.084V4.556h-.67a.243.243 0 0 1-.22-.345l.678-1.462a.243.243 0 0 1 .128-.122.492.492 0 0 0-.184-.95.49.49 0 0 0-.445.7.243.243 0 0 1-.002.202l-.852 1.836a.243.243 0 0 1-.22.14h-2.076a.243.243 0 0 1-.22-.14l-.89-1.916a.243.243 0 0 1-.01-.177.49.49 0 0 0-.465-.645zm.631 3.406h4.048a.243.243 0 0 1 .243.242v.553a.243.243 0 0 1-.097.193l-2.023 1.532a.243.243 0 0 1-.293 0L10.83 6.07a.243.243 0 0 1-.096-.193v-.553a.243.243 0 0 1 .242-.242zm.156 3.224h3.736a.243.243 0 0 1 .225.152l.93 2.304a.243.243 0 0 1-.136.316l-1.305.52-.036.014-1.396 1.098a.243.243 0 0 1-.3 0l-1.396-1.098-1.341-.533a.243.243 0 0 1-.135-.316l.929-2.305a.243.243 0 0 1 .225-.152zm-6.983.98a.243.243 0 0 1 .08.017l6.928 2.757a.243.243 0 0 1 .06.034l.996.784a.243.243 0 0 1-.04.407l-.663.335-2.84 1.437-.57.289a.243.243 0 0 1-.195.01l-4.39-1.661a.243.243 0 0 1-.129-.112l-1.548-2.895a.243.243 0 0 1 .105-.331l2.089-1.046a.243.243 0 0 1 .117-.025zm17.717 0a.243.243 0 0 1 .103.025l2.088 1.046a.243.243 0 0 1 .106.331l-1.549 2.895a.243.243 0 0 1-.128.112l-4.39 1.66a.243.243 0 0 1-.195-.01l-.57-.287a.243.243 0 0 1-.133-.216v.148l-3.37-1.705a.243.243 0 0 1-.04-.407l.996-.784a.243.243 0 0 1 .06-.034l6.927-2.757a.243.243 0 0 1 .095-.017zm-8.858 4.2a.243.243 0 0 1 .102.026l.14.07 3.127 1.583a.243.243 0 0 1 .126.274l-.183.754a.243.243 0 0 1-.235.185h-6.17a.243.243 0 0 1-.235-.185l-.183-.754a.243.243 0 0 1 .126-.274l3.268-1.653a.243.243 0 0 1 .117-.026zm-2.849 3.419a.243.243 0 0 1 .002 0h5.678a.243.243 0 0 1 .235.3l-.25 1.031a.243.243 0 0 1-.236.185h-5.176a.243.243 0 0 1-.236-.185l-.25-1.032a.243.243 0 0 1 .233-.3zm.496 2.044a.243.243 0 0 1 .002 0h4.686a.243.243 0 0 1 .235.3l-.226.935a.243.243 0 0 1-.236.185h-4.232a.243.243 0 0 1-.235-.185l-.227-.936a.243.243 0 0 1 .233-.3zm.908 1.947a.243.243 0 0 1 .002 0h2.87a.243.243 0 0 1 .18.405l-1.435 1.58a.243.243 0 0 1-.359 0l-1.435-1.58a.243.243 0 0 1 .177-.405z"/></svg>