<svg xmlns="http://www.w3.org/2000/svg" viewBox="0 0 26 26" width="26" height="26"><path d="M3.222 2.778a.444.444 0 0 0-.444.444V5.89c0 .245.199.444.444.444h1.334v16.445c0 .245.199.444.444.444h1.778a.444.444 0 0 0 .444-.444v-3.111h12.445v3.11c0 .246.199.445.444.445h1.778a.444.444 0 0 0 .444-.444V6.333h1.334a.444.444 0 0 0 .444-.444V3.222a.444.444 0 0 0-.444-.444zm.445.889h19.555v1.777H3.667zm1.777 2.666h16V17h-16zM3.222 9a.444.444 0 1 0 0 .889.444.444 0 0 0 0-.889zm5.334 0a.444.444 0 1 0 0 .889.444.444 0 0 0 0-.889zm8 1.778a.444.444 0 1 0 0 .889.444.444 0 0 0 0-.89zm8 .889a.444.444 0 1 0 0 .889.444.444 0 0 0 0-.89zM13 12.556a.444.444 0 1 0 0 .888.444.444 0 0 0 0-.888zm.444 1.777a.889.889 0 1 0 0 1.778.889.889 0 0 0 0-1.778zm-12 1.778a.444.444 0 1 0 0 .889.444.444 0 0 0 0-.889zm4 1.778h16v.889h-16zm0 1.778h.89v2.666h-.89zm15.112 0h.888v2.666h-.888z" style="line-height:normal;text-indent:0;text-align:start;text-decoration-line:none;text-decoration-style:solid;text-decoration-color:#000;text-transform:none;isolation:auto;mix-blend-mode:normal" color="#000" font-weight="400" font-family="sans-serif" white-space="normal" overflow="visible"/></svg>