<svg xmlns="http://www.w3.org/2000/svg" viewBox="0 0 26 26" width="26" height="26"><title>13 -Bee Hive- (Outline)</title><path d="M3.648 16.31H22.31l-1.365-3.724H5.014zm18.91.828H3.442a.707.707 0 0 1-.538-.29.66.66 0 0 1-.082-.62l1.613-4.47h17.132l1.613 4.47c.083.206.042.413-.082.62a.707.707 0 0 1-.538.29z"/><path d="M3.648 11.759H22.31l-1.365-3.725H5.014zm18.91.827H3.442a.707.707 0 0 1-.538-.29.66.66 0 0 1-.082-.62l1.613-4.47h17.132l1.613 4.47c.083.207.042.414-.082.62a.707.707 0 0 1-.538.29zm-18.91 8.276H22.31l-1.365-3.724H5.014zm18.91.828H3.442a.707.707 0 0 1-.538-.29.66.66 0 0 1-.082-.62l1.613-4.47h17.132l1.613 4.47c.083.206.042.413-.082.62a.707.707 0 0 1-.538.29z"/><path d="M3.648 7.207H22.31l-1.365-3.724H5.014zm18.91.827H3.442a.707.707 0 0 1-.538-.29.66.66 0 0 1-.082-.62l1.613-4.469h17.132l1.613 4.47c.083.206.042.413-.082.62a.707.707 0 0 1-.538.29z"/><path d="M3.069 1.828v.827h19.862v-.827zm19.862 1.655H3.069a.83.83 0 0 1-.828-.828v-.827A.83.83 0 0 1 3.07 1h19.862a.83.83 0 0 1 .828.828v.827a.83.83 0 0 1-.828.828zM9.359 21.69c.165.496.62.827 1.158.827h4.966c.538 0 .993-.33 1.158-.827zm6.124 1.655h-4.966a2.049 2.049 0 0 1-2.069-2.07v-.413h9.104v.414a2.05 2.05 0 0 1-2.07 2.069zM7.62 21.276V25H5.139v-3.724h.828v2.896h.827v-2.896zm13.242 0V25H18.38v-3.724h.828v2.896h.827v-2.896z"/></svg>