<svg xmlns="http://www.w3.org/2000/svg" viewBox="0 0 26 26" width="26" height="26"><path d="M12.999 1c-.003 0-.024-.002-.057.004a.157.157 0 0 0-.004.001c-.032.007-.054.018-.065.023.003-.002.003-.006-.03.013a.157.157 0 0 0-.007.005.314.314 0 0 0-.015.012l.01-.008a.296.296 0 0 0-.05.043c-.002.003-.016.014-.034.04l.001-.002c.02-.027.008-.015-.011.016a11.672 11.672 0 0 0-1.587 4.93 11.66 11.66 0 0 0-3.848-3.471c-.014-.01-.038-.024.002.002a.157.157 0 0 0-.017-.01c-.036-.018-.055-.019-.057-.02 0 0-.023-.01-.066-.011h.015c.05.007.05-.002-.026-.002h-.002c-.057 0-.07.01-.04.005a.157.157 0 0 0-.002 0c-.009.002-.031.004-.06.015a.297.297 0 0 0-.051.025.157.157 0 0 0-.004.001c.002-.001-.017.008-.043.031a.221.221 0 0 0-.044.05c.003-.007-.003-.005-.022.028-.004.007-.002.005-.004.01a.157.157 0 0 0 0 .002.157.157 0 0 0-.003.003c-.006.013-.004.011-.006.02l-.005.013.002-.005a.374.374 0 0 1-.01.028.157.157 0 0 0 0 .004.164.164 0 0 0-.011.055v.002c-.002 0-.002-.006-.002.014v.002a11.651 11.651 0 0 0 1.083 5.07 11.726 11.726 0 0 0-5.062-1.091h-.002c-.03 0-.012 0-.014.001-.033.002-.053.01-.056.01a.157.157 0 0 0-.005.002c-.007.002-.026.005-.054.02a.157.157 0 0 0-.007.003.157.157 0 0 0-.003 0c-.003.002-.003 0-.005.002-.036.02-.04.028-.03.022a.299.299 0 0 0-.049.043c-.023.026-.032.046-.034.05l-.001.002a.187.187 0 0 0-.025.049.157.157 0 0 0 0 .003.29.29 0 0 0-.014.062.157.157 0 0 0 0 .004c.003-.028-.003-.007-.003.036 0 .032.011.06.014.065l-.008-.026.007.034a.157.157 0 0 0 0 .003s.002.021.02.057l.005.01a11.684 11.684 0 0 0 3.476 3.84 11.651 11.651 0 0 0-4.933 1.599.157.157 0 0 0-.006.004.199.199 0 0 0-.005.004c-.032.021-.045.04-.046.04-.002.002-.019.014-.04.047a.157.157 0 0 0-.005.007c.024-.042.029-.043.004-.008a.157.157 0 0 0-.009.013c-.023.04-.023.057-.014.036a.283.283 0 0 0-.02.059.157.157 0 0 0 0 .003C1 12.97 1 12.99 1 12.999c0 .01-.002.03.004.058a.157.157 0 0 0 .003.012c.005.02.012.038.017.05-.008-.022 0 .002.013.03.012.021.02.026.03.034a.29.29 0 0 0 .066.066l-.012-.008a.157.157 0 0 0 .023.019l.003.002a.157.157 0 0 0 .004.002.157.157 0 0 0 .005.003.607.607 0 0 0 .009.004l.001.001h.001l.003.002h.001a11.662 11.662 0 0 0 4.905 1.587 11.678 11.678 0 0 0-3.474 3.838.132.132 0 0 0-.016.045l-.002.005c0 .005-.007.02-.007.02 0 .002-.01.023-.011.065a.157.157 0 0 0 0 .002c0 .005-.002.003-.002.009 0 .051.007.062.004.033a.157.157 0 0 0 0 .005c.002.011.004.032.013.06a.157.157 0 0 0 0 .005c.011.03.023.045.028.053 0 .001.007.02.03.045a.157.157 0 0 0 .001.002c.022.024.042.037.052.044-.01-.005-.013 0 .03.023a.157.157 0 0 0 .005.003h.005-.001c.034.017.08.033.133.034l.184.002c1.689 0 3.35-.386 4.88-1.09a11.657 11.657 0 0 0-1.082 5.067v.016l.001.002c.003.037.01.055.01.054a.157.157 0 0 0 .002.005l.007.024.002.004.001.003c0 .005.002.017.02.046.003.005.004.004.008.008a.157.157 0 0 0 .002.004l.004.003a.31.31 0 0 0 .078.078.157.157 0 0 0 0 .001c-.007-.005.001.004.03.019a.302.302 0 0 0 .14.035h.002a.157.157 0 0 0 .002 0c.052 0 .1-.016.136-.035l-.004.002c-.047.023-.044.023.006-.002a.157.157 0 0 0 .006-.003 11.665 11.665 0 0 0 3.85-3.473 11.676 11.676 0 0 0 1.602 4.951.155.155 0 0 0 .02.02c.01.009.017.013.019.013.002.002-.02-.007-.045-.044l-.001-.001c.009.014.03.03.046.045.016.018.027.037.052.052a.157.157 0 0 0 .01.005l.023.009-.03-.014a.302.302 0 0 0 .14.04c-.01-.002-.029-.004-.04-.007a.412.412 0 0 0 .018.005l.027.003L13 25l.008-.001.027-.003.018-.005a.298.298 0 0 1-.04.006.302.302 0 0 0 .14-.039l-.03.014.023-.009a.157.157 0 0 0 .01-.005c.026-.015.036-.034.052-.052a.155.155 0 0 0 .057-.062 11.667 11.667 0 0 0 1.584-4.922 11.666 11.666 0 0 0 3.85 3.473.157.157 0 0 0 .007.003c.05.025.053.025.006.002l-.003-.002a.302.302 0 0 0 .135.035.157.157 0 0 0 .002 0h.002a.304.304 0 0 0 .14-.035c.029-.015.037-.024.03-.019a.157.157 0 0 0 0-.001.309.309 0 0 0 .066-.066l.005-.004c.003-.004.008-.007.01-.011a.157.157 0 0 0 .004-.005c.005-.006.006-.004.01-.012a.157.157 0 0 0 .002-.001c.004-.007.001-.005.004-.01v-.002a.157.157 0 0 0 .002-.003c.006-.013.004-.011.007-.02l.005-.013-.003.005a.374.374 0 0 1 .01-.028.157.157 0 0 0 .001-.004s.008-.019.01-.055c.001.003.002.007.002-.016v-.002a11.654 11.654 0 0 0-1.082-5.067 11.68 11.68 0 0 0 5.063 1.088.29.29 0 0 0 .135-.035l-.003.002c-.036.018-.058.015-.057.015.001 0 .025.002.063-.016a.157.157 0 0 0 .006-.003c.048-.027.046-.034.03-.024.006-.004.026-.017.05-.044.02-.024.03-.043.032-.046a.283.283 0 0 0 .027-.053.157.157 0 0 0 0-.003.223.223 0 0 0 .013-.06v-.002c-.002.024.005.006.005-.04 0-.004-.001-.003-.002-.007a.157.157 0 0 0 0-.005.192.192 0 0 0-.014-.07.157.157 0 0 0-.004-.013c.008.022.01.01-.013-.036a.157.157 0 0 0-.002-.002 11.675 11.675 0 0 0-3.478-3.85 11.656 11.656 0 0 0 4.91-1.588l.006-.002h.001v-.001l.002-.001h.002a.157.157 0 0 0 .001-.002l.004-.001a.157.157 0 0 0 .001-.001.157.157 0 0 0 .004-.002l.004-.004.023-.018-.018.012a.32.32 0 0 0 .088-.085l.005-.004a.157.157 0 0 0 .006-.009c.022-.04.019-.044.014-.035l.002-.007c.004-.008.012-.023.018-.052a.157.157 0 0 0 0-.003c.006-.029.005-.049.005-.058 0-.009 0-.028-.005-.057a.157.157 0 0 0 0-.003c-.008-.037-.019-.054-.019-.054a.157.157 0 0 0-.001-.004c.013.03.014.016-.013-.034a.157.157 0 0 0-.009-.013c-.006-.01-.014-.025.003.006a.157.157 0 0 0-.007-.011.13.13 0 0 0-.035-.04.157.157 0 0 0-.002-.003.773.773 0 0 0-.038-.03l.025.022a.284.284 0 0 0-.039-.034l-.007-.007a11.648 11.648 0 0 0-4.933-1.598 11.672 11.672 0 0 0 3.475-3.838c.006-.01.002-.004.004-.009.024-.042.023-.06.02-.05V7.24c.003-.013.012-.037.014-.073a.157.157 0 0 0 0-.007v-.005c.001-.047-.006-.066-.004-.04a.243.243 0 0 0-.012-.061.157.157 0 0 0-.001-.004c-.009-.024-.02-.041-.026-.053 0 0-.011-.023-.034-.048a.296.296 0 0 0-.048-.043c.011.008.009 0-.03-.022-.002-.002-.002 0-.005-.001l-.002-.001a.157.157 0 0 0-.004-.002c-.033-.017-.054-.02-.058-.021a.23.23 0 0 0-.067-.012l.018.002c.048.006.032-.002-.027-.003h-.002a11.76 11.76 0 0 0-5.061 1.09 11.661 11.661 0 0 0 1.083-5.069c0-.022 0-.014-.001-.017l-.001-.001a.165.165 0 0 0-.01-.054.157.157 0 0 0-.002-.005l-.007-.024a.08.08 0 0 1-.002-.004c0-.004 0-.018-.02-.05-.015-.02-.027-.034-.02-.024l-.001-.003c-.005-.006-.015-.023-.043-.046-.024-.02-.041-.029-.04-.029a.157.157 0 0 0-.006 0 .309.309 0 0 0-.05-.024c-.03-.011-.052-.013-.062-.015.03.004.016-.005-.041-.005h-.003c-.036 0-.012 0-.015.002-.04.002-.059.01-.056.01a.157.157 0 0 0-.004.001.185.185 0 0 0-.053.018.157.157 0 0 0-.022.012 11.66 11.66 0 0 0-3.847 3.47 11.671 11.671 0 0 0-1.586-4.93.155.155 0 0 0-.04-.045l.02.02a.527.527 0 0 0-.027-.032c-.005-.004-.019-.021-.048-.041.03.02.03.019-.005-.004a.157.157 0 0 0-.008-.005c-.032-.019-.032-.015-.03-.013-.008-.004-.03-.017-.068-.024-.034-.006-.055-.003-.057-.003zm.124 23.972l-.023.005h.005a1.48 1.48 0 0 0 .017-.005zm-.247 0c.008.003.031.006.023.005l-.023-.005zM6.87 23.239zM13 1.966a11.074 11.074 0 0 1 1.305 4.926A11.595 11.595 0 0 0 13 10.219a11.598 11.598 0 0 0-1.305-3.327c.04-1.722.499-3.407 1.305-4.926zm6.117.761c.014.024.014.03.014.033l-.007-.02a.157.157 0 0 0-.007-.013zm-.599.715a11.027 11.027 0 0 1-1.35 4.97l.02-.03a.297.297 0 0 0-.07.123l.015-.036a11.045 11.045 0 0 1-3.44 3.733 1.05 1.05 0 0 0-.348-.202c.128-1.746.65-3.396 1.512-4.845l-.023.03a.296.296 0 0 0 .07-.119l-.015.032a11.026 11.026 0 0 1 3.63-3.656zm-11.035.001a11.028 11.028 0 0 1 3.628 3.655l-.014-.031a.29.29 0 0 0 .07.118l-.023-.031c.861 1.45 1.384 3.1 1.513 4.845a1.051 1.051 0 0 0-.35.204 11.048 11.048 0 0 1-3.44-3.733l.014.032a.305.305 0 0 0-.067-.118l.02.03a11.025 11.025 0 0 1-1.351-4.971zm15.073 4.04a11.074 11.074 0 0 1-3.614 3.593c-1.19-.01-2.378.174-3.533.533a11.6 11.6 0 0 0 2.228-2.793 11.068 11.068 0 0 1 4.919-1.334zm-19.111 0a11.08 11.08 0 0 1 4.92 1.333 11.603 11.603 0 0 0 2.227 2.793 11.595 11.595 0 0 0-3.533-.533 11.073 11.073 0 0 1-3.614-3.593zm15.659 4.189c.004-.002-.011.01-.05.013h-.005a.479.479 0 0 0 .055-.013zM6.9 11.674l.049.01h-.01c-.031-.004-.044-.013-.04-.01zm.139.002c-.013.007-.058.01-.043.009a11.04 11.04 0 0 1 4.967 1.112c-.014.067-.036.13-.036.202 0 .074.021.136.036.203a11.053 11.053 0 0 1-4.953 1.112l.037.005a.305.305 0 0 0-.137-.001l.036-.004A11.024 11.024 0 0 1 1.965 13a11.021 11.021 0 0 1 4.986-1.314c.01.002.008.004.02.004s.013-.003.022-.005h.002l.043-.008zm11.963.01c-.027.01.048-.005.045 0 1.718.03 3.42.479 4.987 1.313a11.026 11.026 0 0 1-4.98 1.315l.033.003a.295.295 0 0 0-.13.002l.036-.005a11.058 11.058 0 0 1-4.955-1.112c.014-.067.036-.13.036-.203 0-.073-.022-.135-.036-.202A11.051 11.051 0 0 1 19 11.685zm-6.002.85a.463.463 0 1 1-.464.464c0-.257.207-.464.464-.464zm-.694 1.26c.102.09.22.157.35.204a11.053 11.053 0 0 1-1.512 4.844l.022-.03a.299.299 0 0 0-.07.117l.015-.03a11.024 11.024 0 0 1-3.628 3.655c.06-1.772.52-3.47 1.35-4.97l-.019.028a.296.296 0 0 0 .067-.121l-.015.037a11.059 11.059 0 0 1 3.44-3.734zm1.388 0a11.047 11.047 0 0 1 3.44 3.734l-.014-.032a.305.305 0 0 0 .067.117l-.02-.029a11.028 11.028 0 0 1 1.351 4.97 11.032 11.032 0 0 1-3.63-3.656l.016.032a.299.299 0 0 0-.07-.118l.022.03A11.048 11.048 0 0 1 13.343 14c.131-.047.248-.114.35-.204zm-3.109.6a11.602 11.602 0 0 0-2.222 2.787 11.077 11.077 0 0 1-4.918 1.334 11.066 11.066 0 0 1 3.608-3.59c.03.002.057.004.094.004 1.158 0 2.314-.186 3.438-.535zm4.83 0c1.124.35 2.28.535 3.438.535.037 0 .065-.002.095-.003a11.064 11.064 0 0 1 3.608 3.588 11.09 11.09 0 0 1-4.92-1.333 11.601 11.601 0 0 0-2.22-2.787zM13 15.78a11.6 11.6 0 0 0 1.305 3.326A11.077 11.077 0 0 1 13 24.034a11.076 11.076 0 0 1-1.305-4.927A11.593 11.593 0 0 0 13 15.78z"/></svg>