<svg xmlns="http://www.w3.org/2000/svg" viewBox="0 0 26 26" width="26" height="26"><path d="M2.986 1.825L1 5.265l1.986 3.44H6.47a.143.143 0 0 1 .124.072l1.463 2.532a.143.143 0 0 1 0 .143l-1.788 3.095 1.662 2.879a.143.143 0 0 1 0 .143l-1.829 3.166 1.986 3.44h3.973l1.697-2.938a.143.143 0 0 1 .124-.072h3.781l1.986-3.44-1.769-3.064a.143.143 0 0 1 0-.143l1.528-2.646a.143.143 0 0 1 .124-.072h3.482L25 8.36l-1.986-3.441H19.04l-1.744 3.022a.143.143 0 0 1-.124.072H14.18a.143.143 0 0 1-.124-.072L12.31 4.92H8.828a.143.143 0 0 1-.124-.072L6.959 1.825zm.483.703a.143.143 0 0 1 .006 0h2.996a.143.143 0 0 1 .124.071l1.498 2.595a.143.143 0 0 1 0 .143L6.595 7.93a.143.143 0 0 1-.124.072H3.475a.143.143 0 0 1-.124-.072L1.853 5.337a.143.143 0 0 1 0-.143L3.351 2.6a.143.143 0 0 1 .118-.071zM8.82 5.622a.143.143 0 0 1 .007 0h2.995a.143.143 0 0 1 .124.071l1.499 2.596a.143.143 0 0 1 0 .143l-1.499 2.594a.143.143 0 0 1-.124.071H8.827a.143.143 0 0 1-.124-.072L7.205 8.431a.143.143 0 0 1 0-.142l1.498-2.596a.143.143 0 0 1 .117-.071zm10.703 0a.143.143 0 0 1 .007 0h2.995a.143.143 0 0 1 .124.071l1.499 2.596a.143.143 0 0 1 0 .143l-1.499 2.594a.143.143 0 0 1-.124.071H19.53a.143.143 0 0 1-.124-.072l-1.498-2.594a.143.143 0 0 1 0-.142l1.498-2.596a.143.143 0 0 1 .117-.071zm-5.351 3.094a.143.143 0 0 1 .006 0h2.997a.143.143 0 0 1 .124.071l1.497 2.594a.143.143 0 0 1 0 .143L17.3 14.119a.143.143 0 0 1-.124.071h-2.997a.143.143 0 0 1-.124-.071l-1.498-2.595a.143.143 0 0 1 0-.143l1.498-2.594a.143.143 0 0 1 .118-.071zM8.736 11.81a.143.143 0 0 1 .007 0h2.996a.143.143 0 0 1 .124.071l1.498 2.595a.143.143 0 0 1 0 .143l-1.498 2.594a.143.143 0 0 1-.124.072H8.743a.143.143 0 0 1-.124-.072L7.12 14.62a.143.143 0 0 1 0-.143l1.498-2.595a.143.143 0 0 1 .117-.071zm5.436 3.177a.143.143 0 0 1 .007 0h2.996a.143.143 0 0 1 .124.072l1.497 2.594a.143.143 0 0 1 0 .143L17.3 20.39a.143.143 0 0 1-.124.072H14.18a.143.143 0 0 1-.124-.072l-1.499-2.595a.143.143 0 0 1 0-.143l1.499-2.595a.143.143 0 0 1 .117-.071zm-5.603 3.01a.143.143 0 0 1 .007 0h2.995a.143.143 0 0 1 .124.072l1.499 2.594a.143.143 0 0 1 0 .144L11.695 23.4a.143.143 0 0 1-.124.071H8.576a.143.143 0 0 1-.124-.071l-1.498-2.595a.143.143 0 0 1 0-.143l1.498-2.594a.143.143 0 0 1 .117-.071z"/></svg>